# xmcd
#
# Track frame offsets:
#	150
#	17167
#	30382
#	48845
#	96757
#	105117
#	121830
#	138787
#	158505
#	169680
#	181900
#	198697
#	215810
#	229040
#	257415
#	273465
#	291502
#	311505
#
# Disc length: 4483
#
# Revision: 2
# Processed by: cddbd v1.5.1PL0 Copyright (c) Steve Scherf et al.
# Submitted via: CDex 1.40Beta3
# Normalized: r1:DSETVAR2,TDELIM( - )
#
DISCID=ed118112
DTITLE=Various Artist - Blues Guitar
DYEAR=1900
DGENRE=Blues
TTITLE0=Buddy Guy - We're Ready
TTITLE1=Earl Hooker - Wa Wa Blues Part 2
TTITLE2=Byther Smith - Come On In This House
TTITLE3=Jimi Hendrix - Red House
TTITLE4=Johnny Guitar Watson - Looking Back
TTITLE5=Albert Collins - The Things I Used To Do
TTITLE6=John Lee Hooker - Goin' Mad Blues
TTITLE7=Fenton Robinson - Someone Loan Me A Dime
TTITLE8=Ike Turner - Ho Ho
TTITLE9=Buddy Guy - You Sure Can't Do
TTITLE10=Peter Green and Mick Green - Chinese White Boy
TTITLE11=Matt Guitar Murphy - Taking Off
TTITLE12=Mississippi Fred McDowell - I Asked For Whisky
TTITLE13=Billy Boy Arnold and Tony McPhee - Blue and Lonesome
TTITLE14=U P Wilson - 7 Comes 11
TTITLE15=Roy Gaines and The Crusaders - A Hell Of A Night
TTITLE16=Earl Hooker - End Of The Blues
TTITLE17=Luther Allison - You Upset Me Baby
EXTD=ID3G:   0
EXTT0=
EXTT1=
EXTT2=
EXTT3=
EXTT4=
EXTT5=
EXTT6=
EXTT7=
EXTT8=
EXTT9=
EXTT10=
EXTT11=
EXTT12=
EXTT13=
EXTT14=
EXTT15=
EXTT16=
EXTT17=
PLAYORDER=
